<mxfile host="app.diagrams.net" modified="2021-09-09T12:37:30.245Z" agent="5.0 (Macintosh; Intel Mac OS X 10_15_7) AppleWebKit/537.36 (KHTML, like Gecko) Chrome/93.0.4577.63 Safari/537.36" etag="5-ksG2v6lCN6qYrsz64q" version="15.0.4" type="github">
  <diagram id="-ekRMuzB72mITz3plOly" name="Page-1">
    <mxGraphModel dx="850" dy="1676" grid="1" gridSize="10" guides="1" tooltips="1" connect="1" arrows="1" fold="1" page="1" pageScale="1" pageWidth="827" pageHeight="1169" math="0" shadow="0">
      <root>
        <mxCell id="0" />
        <mxCell id="1" parent="0" />
        <mxCell id="myd4yKD4krqfQ7tjYA4y-28" value="" style="strokeWidth=1;shadow=0;dashed=0;align=center;html=1;shape=mxgraph.mockup.containers.browserWindow;rSize=0;strokeColor=#666666;strokeColor2=#008cff;strokeColor3=#c4c4c4;mainText=,;recursiveResize=0;" parent="1" vertex="1">
          <mxGeometry x="70" y="-30" width="711" height="450" as="geometry" />
        </mxCell>
        <mxCell id="myd4yKD4krqfQ7tjYA4y-29" value="Page 1" style="strokeWidth=1;shadow=0;dashed=0;align=center;html=1;shape=mxgraph.mockup.containers.anchor;fontSize=17;fontColor=#666666;align=left;" parent="myd4yKD4krqfQ7tjYA4y-28" vertex="1">
          <mxGeometry x="60" y="12" width="110" height="26" as="geometry" />
        </mxCell>
        <mxCell id="myd4yKD4krqfQ7tjYA4y-30" value="https://www.draw.io" style="strokeWidth=1;shadow=0;dashed=0;align=center;html=1;shape=mxgraph.mockup.containers.anchor;rSize=0;fontSize=17;fontColor=#666666;align=left;" parent="myd4yKD4krqfQ7tjYA4y-28" vertex="1">
          <mxGeometry x="130" y="60" width="250" height="26" as="geometry" />
        </mxCell>
        <mxCell id="myd4yKD4krqfQ7tjYA4y-16" value="Todo" style="text;html=1;strokeColor=none;fillColor=none;align=center;verticalAlign=middle;whiteSpace=wrap;rounded=0;" parent="myd4yKD4krqfQ7tjYA4y-28" vertex="1">
          <mxGeometry x="95" y="120" width="40" height="20" as="geometry" />
        </mxCell>
        <mxCell id="myd4yKD4krqfQ7tjYA4y-31" value="Check your Todos!" style="rounded=0;whiteSpace=wrap;html=1;" parent="myd4yKD4krqfQ7tjYA4y-28" vertex="1">
          <mxGeometry x="450" y="150" width="170" height="270" as="geometry" />
        </mxCell>
        <mxCell id="myd4yKD4krqfQ7tjYA4y-32" value="Toolbar" style="text;html=1;strokeColor=none;fillColor=none;align=center;verticalAlign=middle;whiteSpace=wrap;rounded=0;" parent="myd4yKD4krqfQ7tjYA4y-28" vertex="1">
          <mxGeometry x="303.5" y="170" width="40" height="20" as="geometry" />
        </mxCell>
        <mxCell id="myd4yKD4krqfQ7tjYA4y-2" value="" style="rounded=0;whiteSpace=wrap;html=1;" parent="1" vertex="1">
          <mxGeometry x="115.5" y="120" width="170" height="270" as="geometry" />
        </mxCell>
        <mxCell id="myd4yKD4krqfQ7tjYA4y-3" value="" style="rounded=0;whiteSpace=wrap;html=1;" parent="1" vertex="1">
          <mxGeometry x="335.5" y="165" width="120" height="197.5" as="geometry" />
        </mxCell>
        <mxCell id="myd4yKD4krqfQ7tjYA4y-7" value="" style="shape=image;html=1;verticalAlign=top;verticalLabelPosition=bottom;labelBackgroundColor=#ffffff;imageAspect=0;aspect=fixed;image=https://cdn0.iconfinder.com/data/icons/essentials-9/128/__Left-128.png" parent="1" vertex="1">
          <mxGeometry x="379.5" y="243.75" width="40" height="40" as="geometry" />
        </mxCell>
        <mxCell id="myd4yKD4krqfQ7tjYA4y-8" value="" style="shape=image;html=1;verticalAlign=top;verticalLabelPosition=bottom;labelBackgroundColor=#ffffff;imageAspect=0;aspect=fixed;image=https://cdn0.iconfinder.com/data/icons/essentials-9/128/__Left-128.png;direction=west;rotation=0;" parent="1" vertex="1">
          <mxGeometry x="375.5" y="182.5" width="40" height="40" as="geometry" />
        </mxCell>
        <mxCell id="myd4yKD4krqfQ7tjYA4y-9" value="" style="shape=image;html=1;verticalAlign=top;verticalLabelPosition=bottom;labelBackgroundColor=#ffffff;imageAspect=0;aspect=fixed;image=https://cdn2.iconfinder.com/data/icons/freecns-cumulus/16/519567-063_Undo-128.png" parent="1" vertex="1">
          <mxGeometry x="379.5" y="302.5" width="40" height="40" as="geometry" />
        </mxCell>
        <mxCell id="myd4yKD4krqfQ7tjYA4y-17" value="Done" style="text;html=1;strokeColor=none;fillColor=none;align=center;verticalAlign=middle;whiteSpace=wrap;rounded=0;" parent="1" vertex="1">
          <mxGeometry x="570.5" y="90" width="40" height="20" as="geometry" />
        </mxCell>
        <mxCell id="myd4yKD4krqfQ7tjYA4y-20" value="Todo Item 1" style="rounded=0;whiteSpace=wrap;html=1;" parent="1" vertex="1">
          <mxGeometry x="125.5" y="132.5" width="150" height="20" as="geometry" />
        </mxCell>
        <mxCell id="myd4yKD4krqfQ7tjYA4y-21" value="Todo Item 2" style="rounded=0;whiteSpace=wrap;html=1;" parent="1" vertex="1">
          <mxGeometry x="125.5" y="162.5" width="150" height="20" as="geometry" />
        </mxCell>
        <mxCell id="myd4yKD4krqfQ7tjYA4y-22" value="Todo Item 3" style="rounded=0;whiteSpace=wrap;html=1;" parent="1" vertex="1">
          <mxGeometry x="125.5" y="193.75" width="150" height="20" as="geometry" />
        </mxCell>
        <mxCell id="myd4yKD4krqfQ7tjYA4y-23" value="Todo Item 4" style="rounded=0;whiteSpace=wrap;html=1;" parent="1" vertex="1">
          <mxGeometry x="125.5" y="223.75" width="150" height="20" as="geometry" />
        </mxCell>
        <mxCell id="myd4yKD4krqfQ7tjYA4y-24" value="Write a utility function to mimic an API call using promise and setTimeout.&amp;nbsp;&lt;br&gt;Example:&lt;br&gt;&lt;br&gt;const data = [ { id: 1, title: &#39;todo item 1&#39;}, { id: 2, title: &#39;todo item 2&#39;}]&lt;br&gt;&lt;br&gt;const getItemList = () =&amp;gt; {&lt;br&gt;&lt;span style=&quot;white-space: pre&quot;&gt;	&lt;/span&gt;// your function body here&lt;br&gt;}&lt;br&gt;&lt;br&gt;Use:&lt;br&gt;const response = await getItemList(); // response =&amp;gt; data&lt;br&gt;or&lt;br&gt;getItemList().then((response) =&amp;gt; {&lt;span style=&quot;white-space: pre&quot;&gt;	&lt;/span&gt;// response =&amp;gt; data&lt;br&gt;&lt;span style=&quot;white-space: pre&quot;&gt;	&lt;/span&gt;// your function body here&lt;br&gt;})" style="rounded=0;whiteSpace=wrap;html=1;align=left;verticalAlign=top;" parent="1" vertex="1">
          <mxGeometry x="84" y="-670" width="610" height="220" as="geometry" />
        </mxCell>
        <mxCell id="myd4yKD4krqfQ7tjYA4y-25" value="Requirements&lt;br&gt;1. Load data from getItemlist into Todo Column.&lt;br&gt;2. Items in the columns are clickable (change the bg color to show clicked item)&lt;br&gt;3. Select an Item from Todo Column, then click on &amp;gt; icon to move the item to Done column.&lt;br&gt;4. Once items are in Done Column, click on an item and click on &amp;lt; icon to move them back to Todo.&lt;br&gt;5. Implement undo functionality.&lt;br&gt;How undo works:&lt;br&gt;Action 1: Move TodoItem 1 from Todo to Done.&lt;br&gt;Action 2: Move TodoItem 1 from Done to To do.&lt;br&gt;Action 3: Move TodoItem 2 from Todo to Done.&lt;br&gt;&lt;br&gt;Undo Click 1: Move TodoItem 2 from Done to Todo.&lt;br&gt;Undo Click 2: Move TodoItem 1 from Todo to Done.&lt;br&gt;Undo Click 3: Move TodoItem 1 from Done to Todo.&lt;br&gt;Undo Disabled." style="rounded=0;whiteSpace=wrap;html=1;align=left;verticalAlign=top;" parent="1" vertex="1">
          <mxGeometry x="79" y="-320" width="620" height="240" as="geometry" />
        </mxCell>
        <mxCell id="myd4yKD4krqfQ7tjYA4y-27" value="Write a customHooks to make API calls and use it in the next step." style="whiteSpace=wrap;html=1;align=left;verticalAlign=top;" parent="1" vertex="1">
          <mxGeometry x="78" y="-420" width="616" height="60" as="geometry" />
        </mxCell>
      </root>
    </mxGraphModel>
  </diagram>
</mxfile>
